# xmcd
#
# Track frame offsets:
#	150
#	10703
#	22247
#	35374
#	47143
#	55864
#	65584
#	78554
#	92949
#	100220
#	111016
#	123199
#	135746
#
# Disc length: 1950 seconds
#
# Revision: 1
# Processed by: cddbd v1.5.2PL0 Copyright (c) Steve Scherf et al.
# Submitted via: audiograbber 1.83.01
#
DISCID=ac079c0d
DTITLE=Don Williams and The Pozo-Seco Singers - I Can Make It With You
DYEAR=1967
DGENRE=Country
TTITLE0=I Can Make It With You
TTITLE1=If I Were A Carpenter
TTITLE2=Johnny
TTITLE3=Changes
TTITLE4=Forget His Name
TTITLE5=Mary Jenkins
TTITLE6=Look What You've Done
TTITLE7=Almost Persuaded
TTITLE8=Diet
TTITLE9=Ribbon Of Darkness
TTITLE10=Blue Eyes
TTITLE11=I Believe It All
TTITLE12=Lousiana Man
EXTD=
EXTT0=
EXTT1=
EXTT2=
EXTT3=
EXTT4=
EXTT5=
EXTT6=
EXTT7=
EXTT8=
EXTT9=
EXTT10=
EXTT11=
EXTT12=
PLAYORDER=
